<mxfile host="app.diagrams.net" modified="2024-03-15T21:39:38.661Z" agent="Mozilla/5.0 (X11; Linux x86_64) AppleWebKit/537.36 (KHTML, like Gecko) Chrome/122.0.0.0 Safari/537.36" etag="FpEQ7AyCuO_LOQcsIiPH" version="24.0.6" type="github" pages="2">
  <diagram name="Page-1" id="bepqwDNufTiL2cPif1Qz">
    <mxGraphModel dx="2533" dy="-68" grid="1" gridSize="11" guides="1" tooltips="1" connect="1" arrows="1" fold="1" page="1" pageScale="1" pageWidth="1169" pageHeight="827" math="0" shadow="0">
      <root>
        <mxCell id="0" />
        <mxCell id="1" parent="0" />
        <mxCell id="hYQo3jA98YawYeU_-Lyr-172" value="&lt;span id=&quot;docs-internal-guid-1f08c8d8-7fff-82e0-286f-c35f1ce220a0&quot;&gt;&lt;span style=&quot;font-size: 14pt; font-family: Arial, sans-serif; background-color: transparent; font-weight: 700; font-variant-numeric: normal; font-variant-east-asian: normal; font-variant-alternates: normal; font-variant-position: normal; vertical-align: baseline; white-space-collapse: preserve;&quot;&gt;Property&lt;/span&gt;&lt;/span&gt;" style="rounded=0;whiteSpace=wrap;html=1;strokeWidth=2;" parent="1" vertex="1">
          <mxGeometry x="-625" y="937" width="207" height="77" as="geometry" />
        </mxCell>
        <mxCell id="hYQo3jA98YawYeU_-Lyr-173" value="Add Property" style="rounded=0;whiteSpace=wrap;html=1;strokeWidth=2;" parent="1" vertex="1">
          <mxGeometry x="-998" y="1091" width="120" height="60" as="geometry" />
        </mxCell>
        <mxCell id="hYQo3jA98YawYeU_-Lyr-174" value="Change Property" style="rounded=0;whiteSpace=wrap;html=1;strokeWidth=2;" parent="1" vertex="1">
          <mxGeometry x="-715" y="1091" width="120" height="60" as="geometry" />
        </mxCell>
        <mxCell id="hYQo3jA98YawYeU_-Lyr-175" value="Remove Property" style="rounded=0;whiteSpace=wrap;html=1;strokeWidth=2;" parent="1" vertex="1">
          <mxGeometry x="-221" y="1091" width="177" height="53" as="geometry" />
        </mxCell>
        <mxCell id="hYQo3jA98YawYeU_-Lyr-176" value="" style="endArrow=none;html=1;rounded=0;strokeWidth=2;" parent="1" edge="1">
          <mxGeometry width="50" height="50" relative="1" as="geometry">
            <mxPoint x="-869" y="1047" as="sourcePoint" />
            <mxPoint x="-209" y="1047" as="targetPoint" />
          </mxGeometry>
        </mxCell>
        <mxCell id="hYQo3jA98YawYeU_-Lyr-184" value="Property Code" style="rounded=0;whiteSpace=wrap;html=1;strokeWidth=2;" parent="1" vertex="1">
          <mxGeometry x="-1141" y="1223" width="88" height="33" as="geometry" />
        </mxCell>
        <mxCell id="hYQo3jA98YawYeU_-Lyr-185" value="Property Address" style="rounded=0;whiteSpace=wrap;html=1;strokeWidth=2;" parent="1" vertex="1">
          <mxGeometry x="-1031" y="1223" width="88" height="33" as="geometry" />
        </mxCell>
        <mxCell id="hYQo3jA98YawYeU_-Lyr-186" value="Property Telephon" style="rounded=0;whiteSpace=wrap;html=1;strokeWidth=2;" parent="1" vertex="1">
          <mxGeometry x="-932" y="1223" width="88" height="33" as="geometry" />
        </mxCell>
        <mxCell id="hYQo3jA98YawYeU_-Lyr-187" value="Property Type" style="rounded=0;whiteSpace=wrap;html=1;strokeWidth=2;" parent="1" vertex="1">
          <mxGeometry x="-833" y="1223" width="88" height="33" as="geometry" />
        </mxCell>
        <mxCell id="hYQo3jA98YawYeU_-Lyr-188" value="" style="endArrow=none;html=1;rounded=0;exitX=0;exitY=1;exitDx=0;exitDy=0;entryX=0.5;entryY=0;entryDx=0;entryDy=0;strokeWidth=2;" parent="1" source="hYQo3jA98YawYeU_-Lyr-173" target="hYQo3jA98YawYeU_-Lyr-184" edge="1">
          <mxGeometry width="50" height="50" relative="1" as="geometry">
            <mxPoint x="-514" y="1174" as="sourcePoint" />
            <mxPoint x="-464" y="1124" as="targetPoint" />
          </mxGeometry>
        </mxCell>
        <mxCell id="hYQo3jA98YawYeU_-Lyr-189" value="" style="endArrow=none;html=1;rounded=0;entryX=0.25;entryY=1;entryDx=0;entryDy=0;exitX=0.5;exitY=0;exitDx=0;exitDy=0;strokeWidth=2;" parent="1" source="hYQo3jA98YawYeU_-Lyr-185" target="hYQo3jA98YawYeU_-Lyr-173" edge="1">
          <mxGeometry width="50" height="50" relative="1" as="geometry">
            <mxPoint x="-514" y="1174" as="sourcePoint" />
            <mxPoint x="-464" y="1124" as="targetPoint" />
          </mxGeometry>
        </mxCell>
        <mxCell id="hYQo3jA98YawYeU_-Lyr-190" value="" style="endArrow=none;html=1;rounded=0;exitX=0.558;exitY=1;exitDx=0;exitDy=0;exitPerimeter=0;entryX=0.5;entryY=0;entryDx=0;entryDy=0;strokeWidth=2;" parent="1" source="hYQo3jA98YawYeU_-Lyr-173" target="hYQo3jA98YawYeU_-Lyr-186" edge="1">
          <mxGeometry width="50" height="50" relative="1" as="geometry">
            <mxPoint x="-514" y="1174" as="sourcePoint" />
            <mxPoint x="-464" y="1124" as="targetPoint" />
          </mxGeometry>
        </mxCell>
        <mxCell id="hYQo3jA98YawYeU_-Lyr-191" value="" style="endArrow=none;html=1;rounded=0;exitX=1;exitY=1;exitDx=0;exitDy=0;entryX=0.5;entryY=0;entryDx=0;entryDy=0;strokeWidth=2;" parent="1" source="hYQo3jA98YawYeU_-Lyr-173" target="hYQo3jA98YawYeU_-Lyr-187" edge="1">
          <mxGeometry width="50" height="50" relative="1" as="geometry">
            <mxPoint x="-514" y="1174" as="sourcePoint" />
            <mxPoint x="-464" y="1124" as="targetPoint" />
          </mxGeometry>
        </mxCell>
        <mxCell id="hYQo3jA98YawYeU_-Lyr-192" value="Property Code" style="rounded=0;whiteSpace=wrap;html=1;strokeWidth=2;" parent="1" vertex="1">
          <mxGeometry x="-710" y="1223" width="88" height="33" as="geometry" />
        </mxCell>
        <mxCell id="hYQo3jA98YawYeU_-Lyr-194" value="" style="endArrow=none;html=1;rounded=0;exitX=0.5;exitY=0;exitDx=0;exitDy=0;entryX=0.5;entryY=1;entryDx=0;entryDy=0;strokeWidth=2;" parent="1" source="hYQo3jA98YawYeU_-Lyr-192" target="hYQo3jA98YawYeU_-Lyr-174" edge="1">
          <mxGeometry width="50" height="50" relative="1" as="geometry">
            <mxPoint x="-501" y="1174" as="sourcePoint" />
            <mxPoint x="-451" y="1124" as="targetPoint" />
          </mxGeometry>
        </mxCell>
        <mxCell id="hYQo3jA98YawYeU_-Lyr-195" value="" style="endArrow=none;html=1;rounded=0;exitX=0.5;exitY=0;exitDx=0;exitDy=0;entryX=0.5;entryY=1;entryDx=0;entryDy=0;strokeWidth=2;" parent="1" edge="1">
          <mxGeometry width="50" height="50" relative="1" as="geometry">
            <mxPoint x="-122" y="1223" as="sourcePoint" />
            <mxPoint x="-122" y="1151" as="targetPoint" />
          </mxGeometry>
        </mxCell>
        <mxCell id="hYQo3jA98YawYeU_-Lyr-196" value="&lt;span id=&quot;docs-internal-guid-1f08c8d8-7fff-82e0-286f-c35f1ce220a0&quot;&gt;&lt;span style=&quot;font-size: 14pt; font-family: Arial, sans-serif; background-color: transparent; font-weight: 700; font-variant-numeric: normal; font-variant-east-asian: normal; font-variant-alternates: normal; font-variant-position: normal; vertical-align: baseline; white-space-collapse: preserve;&quot;&gt;Customer&lt;/span&gt;&lt;/span&gt;" style="rounded=0;whiteSpace=wrap;html=1;strokeWidth=2;" parent="1" vertex="1">
          <mxGeometry x="-570" y="1299" width="207" height="77" as="geometry" />
        </mxCell>
        <mxCell id="hYQo3jA98YawYeU_-Lyr-197" value="Record Details" style="rounded=0;whiteSpace=wrap;html=1;strokeWidth=2;" parent="1" vertex="1">
          <mxGeometry x="-1044" y="1453" width="120" height="60" as="geometry" />
        </mxCell>
        <mxCell id="hYQo3jA98YawYeU_-Lyr-198" value="Update Customer" style="rounded=0;whiteSpace=wrap;html=1;strokeWidth=2;" parent="1" vertex="1">
          <mxGeometry x="-533.5" y="1453" width="120" height="60" as="geometry" />
        </mxCell>
        <mxCell id="hYQo3jA98YawYeU_-Lyr-199" value="Remove Customer" style="rounded=0;whiteSpace=wrap;html=1;strokeWidth=2;" parent="1" vertex="1">
          <mxGeometry x="-215" y="1453" width="120" height="60" as="geometry" />
        </mxCell>
        <mxCell id="hYQo3jA98YawYeU_-Lyr-200" value="" style="endArrow=none;html=1;rounded=0;strokeWidth=2;" parent="1" edge="1">
          <mxGeometry width="50" height="50" relative="1" as="geometry">
            <mxPoint x="-990" y="1408" as="sourcePoint" />
            <mxPoint x="-154" y="1409" as="targetPoint" />
          </mxGeometry>
        </mxCell>
        <mxCell id="hYQo3jA98YawYeU_-Lyr-213" value="Customer&amp;nbsp;Code" style="rounded=0;whiteSpace=wrap;html=1;strokeWidth=2;" parent="1" vertex="1">
          <mxGeometry x="-517" y="1585" width="88" height="33" as="geometry" />
        </mxCell>
        <mxCell id="hYQo3jA98YawYeU_-Lyr-214" value="Customer&amp;nbsp;Code" style="rounded=0;whiteSpace=wrap;html=1;strokeWidth=2;" parent="1" vertex="1">
          <mxGeometry x="-199" y="1585" width="88" height="33" as="geometry" />
        </mxCell>
        <mxCell id="hYQo3jA98YawYeU_-Lyr-215" value="" style="endArrow=none;html=1;rounded=0;exitX=0.5;exitY=0;exitDx=0;exitDy=0;entryX=0.5;entryY=1;entryDx=0;entryDy=0;strokeWidth=2;" parent="1" source="hYQo3jA98YawYeU_-Lyr-213" target="hYQo3jA98YawYeU_-Lyr-198" edge="1">
          <mxGeometry width="50" height="50" relative="1" as="geometry">
            <mxPoint x="-374" y="1536" as="sourcePoint" />
            <mxPoint x="-324" y="1486" as="targetPoint" />
          </mxGeometry>
        </mxCell>
        <mxCell id="hYQo3jA98YawYeU_-Lyr-216" value="" style="endArrow=none;html=1;rounded=0;exitX=0.5;exitY=0;exitDx=0;exitDy=0;entryX=0.5;entryY=1;entryDx=0;entryDy=0;strokeWidth=2;" parent="1" source="hYQo3jA98YawYeU_-Lyr-214" target="hYQo3jA98YawYeU_-Lyr-199" edge="1">
          <mxGeometry width="50" height="50" relative="1" as="geometry">
            <mxPoint x="-374" y="1536" as="sourcePoint" />
            <mxPoint x="-324" y="1486" as="targetPoint" />
          </mxGeometry>
        </mxCell>
        <mxCell id="hYQo3jA98YawYeU_-Lyr-239" value="&lt;span id=&quot;docs-internal-guid-1f08c8d8-7fff-82e0-286f-c35f1ce220a0&quot;&gt;&lt;span style=&quot;font-size: 14pt; font-family: Arial, sans-serif; background-color: transparent; font-weight: 700; font-variant-numeric: normal; font-variant-east-asian: normal; font-variant-alternates: normal; font-variant-position: normal; vertical-align: baseline; white-space-collapse: preserve;&quot;&gt;Staff Mumber&lt;/span&gt;&lt;/span&gt;" style="rounded=0;whiteSpace=wrap;html=1;strokeWidth=2;" parent="1" vertex="1">
          <mxGeometry x="-583.5" y="1727" width="207" height="77" as="geometry" />
        </mxCell>
        <mxCell id="hYQo3jA98YawYeU_-Lyr-240" value="Hire Staff" style="rounded=0;whiteSpace=wrap;html=1;strokeWidth=2;" parent="1" vertex="1">
          <mxGeometry x="-871.5" y="1881" width="120" height="60" as="geometry" />
        </mxCell>
        <mxCell id="hYQo3jA98YawYeU_-Lyr-241" value="Update Staff" style="rounded=0;whiteSpace=wrap;html=1;strokeWidth=2;" parent="1" vertex="1">
          <mxGeometry x="-547" y="1881" width="120" height="60" as="geometry" />
        </mxCell>
        <mxCell id="hYQo3jA98YawYeU_-Lyr-242" value="Remove Staff" style="rounded=0;whiteSpace=wrap;html=1;strokeWidth=2;" parent="1" vertex="1">
          <mxGeometry x="-228.5" y="1881" width="120" height="60" as="geometry" />
        </mxCell>
        <mxCell id="hYQo3jA98YawYeU_-Lyr-243" value="" style="endArrow=none;html=1;rounded=0;strokeWidth=2;" parent="1" edge="1">
          <mxGeometry width="50" height="50" relative="1" as="geometry">
            <mxPoint x="-827.5" y="1837" as="sourcePoint" />
            <mxPoint x="-167.5" y="1837" as="targetPoint" />
          </mxGeometry>
        </mxCell>
        <mxCell id="hYQo3jA98YawYeU_-Lyr-248" value="Staff&amp;nbsp;Code" style="rounded=0;whiteSpace=wrap;html=1;strokeWidth=2;" parent="1" vertex="1">
          <mxGeometry x="-1067" y="2013" width="110" height="33" as="geometry" />
        </mxCell>
        <mxCell id="hYQo3jA98YawYeU_-Lyr-249" value="Staff&amp;nbsp;Name" style="rounded=0;whiteSpace=wrap;html=1;strokeWidth=2;" parent="1" vertex="1">
          <mxGeometry x="-924" y="2013" width="132" height="33" as="geometry" />
        </mxCell>
        <mxCell id="hYQo3jA98YawYeU_-Lyr-250" value="Staff&amp;nbsp;BR Code" style="rounded=0;whiteSpace=wrap;html=1;strokeWidth=2;" parent="1" vertex="1">
          <mxGeometry x="-781" y="2013" width="121" height="33" as="geometry" />
        </mxCell>
        <mxCell id="hYQo3jA98YawYeU_-Lyr-251" value="Staff&amp;nbsp;Role" style="rounded=0;whiteSpace=wrap;html=1;strokeWidth=2;" parent="1" vertex="1">
          <mxGeometry x="-647" y="2013" width="88" height="33" as="geometry" />
        </mxCell>
        <mxCell id="hYQo3jA98YawYeU_-Lyr-252" value="" style="endArrow=none;html=1;rounded=0;entryX=0.5;entryY=0;entryDx=0;entryDy=0;strokeWidth=2;" parent="1" target="hYQo3jA98YawYeU_-Lyr-248" edge="1">
          <mxGeometry width="50" height="50" relative="1" as="geometry">
            <mxPoint x="-1012" y="1980" as="sourcePoint" />
            <mxPoint x="-337.5" y="1914" as="targetPoint" />
          </mxGeometry>
        </mxCell>
        <mxCell id="hYQo3jA98YawYeU_-Lyr-253" value="" style="endArrow=none;html=1;rounded=0;exitX=0.5;exitY=0;exitDx=0;exitDy=0;strokeWidth=2;" parent="1" source="hYQo3jA98YawYeU_-Lyr-249" edge="1">
          <mxGeometry width="50" height="50" relative="1" as="geometry">
            <mxPoint x="-387.5" y="1964" as="sourcePoint" />
            <mxPoint x="-858" y="1980" as="targetPoint" />
          </mxGeometry>
        </mxCell>
        <mxCell id="hYQo3jA98YawYeU_-Lyr-254" value="" style="endArrow=none;html=1;rounded=0;entryX=0.5;entryY=0;entryDx=0;entryDy=0;strokeWidth=2;" parent="1" target="hYQo3jA98YawYeU_-Lyr-250" edge="1">
          <mxGeometry width="50" height="50" relative="1" as="geometry">
            <mxPoint x="-720" y="1980" as="sourcePoint" />
            <mxPoint x="-337.5" y="1914" as="targetPoint" />
          </mxGeometry>
        </mxCell>
        <mxCell id="hYQo3jA98YawYeU_-Lyr-255" value="" style="endArrow=none;html=1;rounded=0;entryX=0.5;entryY=0;entryDx=0;entryDy=0;strokeWidth=2;" parent="1" target="hYQo3jA98YawYeU_-Lyr-251" edge="1">
          <mxGeometry width="50" height="50" relative="1" as="geometry">
            <mxPoint x="-603" y="1980" as="sourcePoint" />
            <mxPoint x="-337.5" y="1914" as="targetPoint" />
          </mxGeometry>
        </mxCell>
        <mxCell id="hYQo3jA98YawYeU_-Lyr-256" value="Staff&amp;nbsp;Code" style="rounded=0;whiteSpace=wrap;html=1;strokeWidth=2;" parent="1" vertex="1">
          <mxGeometry x="-532" y="2013" width="88" height="33" as="geometry" />
        </mxCell>
        <mxCell id="hYQo3jA98YawYeU_-Lyr-257" value="After 1 Year" style="rounded=0;whiteSpace=wrap;html=1;strokeWidth=2;" parent="1" vertex="1">
          <mxGeometry x="-251.5" y="2013" width="88" height="33" as="geometry" />
        </mxCell>
        <mxCell id="hYQo3jA98YawYeU_-Lyr-258" value="" style="endArrow=none;html=1;rounded=0;exitX=0.5;exitY=0;exitDx=0;exitDy=0;entryX=0.5;entryY=1;entryDx=0;entryDy=0;strokeWidth=2;" parent="1" source="hYQo3jA98YawYeU_-Lyr-256" target="hYQo3jA98YawYeU_-Lyr-241" edge="1">
          <mxGeometry width="50" height="50" relative="1" as="geometry">
            <mxPoint x="-387.5" y="1964" as="sourcePoint" />
            <mxPoint x="-337.5" y="1914" as="targetPoint" />
          </mxGeometry>
        </mxCell>
        <mxCell id="hYQo3jA98YawYeU_-Lyr-259" value="" style="endArrow=none;html=1;rounded=0;exitX=0.5;exitY=0;exitDx=0;exitDy=0;strokeWidth=2;" parent="1" source="hYQo3jA98YawYeU_-Lyr-257" edge="1">
          <mxGeometry width="50" height="50" relative="1" as="geometry">
            <mxPoint x="-426.5" y="1964" as="sourcePoint" />
            <mxPoint x="-207" y="1980" as="targetPoint" />
          </mxGeometry>
        </mxCell>
        <mxCell id="hYQo3jA98YawYeU_-Lyr-260" value="" style="endArrow=none;html=1;rounded=0;exitX=0.367;exitY=0.017;exitDx=0;exitDy=0;exitPerimeter=0;strokeWidth=2;" parent="1" edge="1">
          <mxGeometry width="50" height="50" relative="1" as="geometry">
            <mxPoint x="-987.96" y="1454.02" as="sourcePoint" />
            <mxPoint x="-989" y="1409" as="targetPoint" />
          </mxGeometry>
        </mxCell>
        <mxCell id="hYQo3jA98YawYeU_-Lyr-261" value="" style="endArrow=none;html=1;rounded=0;entryX=0.5;entryY=0;entryDx=0;entryDy=0;strokeWidth=2;" parent="1" target="hYQo3jA98YawYeU_-Lyr-198" edge="1">
          <mxGeometry width="50" height="50" relative="1" as="geometry">
            <mxPoint x="-473" y="1409" as="sourcePoint" />
            <mxPoint x="-379" y="1156" as="targetPoint" />
          </mxGeometry>
        </mxCell>
        <mxCell id="hYQo3jA98YawYeU_-Lyr-262" value="" style="endArrow=none;html=1;rounded=0;exitX=0.367;exitY=-0.017;exitDx=0;exitDy=0;exitPerimeter=0;strokeWidth=2;" parent="1" source="hYQo3jA98YawYeU_-Lyr-173" edge="1">
          <mxGeometry width="50" height="50" relative="1" as="geometry">
            <mxPoint x="-429" y="1262" as="sourcePoint" />
            <mxPoint x="-869" y="1047" as="targetPoint" />
          </mxGeometry>
        </mxCell>
        <mxCell id="hYQo3jA98YawYeU_-Lyr-264" value="" style="endArrow=none;html=1;rounded=0;exitX=0.367;exitY=-0.017;exitDx=0;exitDy=0;exitPerimeter=0;strokeWidth=2;" parent="1" edge="1">
          <mxGeometry width="50" height="50" relative="1" as="geometry">
            <mxPoint x="-210.5" y="1091" as="sourcePoint" />
            <mxPoint x="-210.5" y="1048" as="targetPoint" />
          </mxGeometry>
        </mxCell>
        <mxCell id="hYQo3jA98YawYeU_-Lyr-265" value="" style="endArrow=none;html=1;rounded=0;entryX=0.5;entryY=0;entryDx=0;entryDy=0;strokeWidth=2;" parent="1" edge="1">
          <mxGeometry width="50" height="50" relative="1" as="geometry">
            <mxPoint x="-156" y="1409" as="sourcePoint" />
            <mxPoint x="-156" y="1453" as="targetPoint" />
          </mxGeometry>
        </mxCell>
        <mxCell id="hYQo3jA98YawYeU_-Lyr-266" value="" style="endArrow=none;html=1;rounded=0;entryX=0.469;entryY=1.026;entryDx=0;entryDy=0;entryPerimeter=0;strokeWidth=2;" parent="1" target="hYQo3jA98YawYeU_-Lyr-196" edge="1">
          <mxGeometry width="50" height="50" relative="1" as="geometry">
            <mxPoint x="-473" y="1409" as="sourcePoint" />
            <mxPoint x="-379" y="1519" as="targetPoint" />
          </mxGeometry>
        </mxCell>
        <mxCell id="hYQo3jA98YawYeU_-Lyr-267" value="" style="endArrow=none;html=1;rounded=0;entryX=0.469;entryY=1.026;entryDx=0;entryDy=0;entryPerimeter=0;strokeWidth=2;" parent="1" edge="1">
          <mxGeometry width="50" height="50" relative="1" as="geometry">
            <mxPoint x="-487.5" y="1835" as="sourcePoint" />
            <mxPoint x="-487.5" y="1804" as="targetPoint" />
          </mxGeometry>
        </mxCell>
        <mxCell id="hYQo3jA98YawYeU_-Lyr-268" value="" style="endArrow=none;html=1;rounded=0;exitX=0.367;exitY=0.017;exitDx=0;exitDy=0;exitPerimeter=0;strokeWidth=2;" parent="1" edge="1">
          <mxGeometry width="50" height="50" relative="1" as="geometry">
            <mxPoint x="-830" y="1881" as="sourcePoint" />
            <mxPoint x="-830" y="1836" as="targetPoint" />
          </mxGeometry>
        </mxCell>
        <mxCell id="hYQo3jA98YawYeU_-Lyr-269" value="" style="endArrow=none;html=1;rounded=0;exitX=0.367;exitY=0.017;exitDx=0;exitDy=0;exitPerimeter=0;strokeWidth=2;" parent="1" edge="1">
          <mxGeometry width="50" height="50" relative="1" as="geometry">
            <mxPoint x="-490" y="1881" as="sourcePoint" />
            <mxPoint x="-490" y="1836" as="targetPoint" />
          </mxGeometry>
        </mxCell>
        <mxCell id="hYQo3jA98YawYeU_-Lyr-270" value="" style="endArrow=none;html=1;rounded=0;exitX=0.367;exitY=0.017;exitDx=0;exitDy=0;exitPerimeter=0;strokeWidth=2;" parent="1" edge="1">
          <mxGeometry width="50" height="50" relative="1" as="geometry">
            <mxPoint x="-169" y="1881" as="sourcePoint" />
            <mxPoint x="-169" y="1836" as="targetPoint" />
          </mxGeometry>
        </mxCell>
        <mxCell id="hYQo3jA98YawYeU_-Lyr-271" value="&lt;font style=&quot;font-size: 24px;&quot;&gt;&lt;b&gt;Entity Life History Diagram for the three most active entities&lt;/b&gt;&lt;/font&gt;" style="rounded=0;whiteSpace=wrap;html=1;" parent="1" vertex="1">
          <mxGeometry x="-935" y="862" width="781" height="60" as="geometry" />
        </mxCell>
        <mxCell id="ebxvgqM7-ZJhUs1iQiPG-6" value="Withdraw Property&amp;nbsp;" style="rounded=0;whiteSpace=wrap;html=1;strokeWidth=2;" parent="1" vertex="1">
          <mxGeometry x="-319" y="1223" width="88" height="33" as="geometry" />
        </mxCell>
        <mxCell id="ebxvgqM7-ZJhUs1iQiPG-7" value="" style="endArrow=none;html=1;rounded=0;exitX=0.5;exitY=0;exitDx=0;exitDy=0;entryX=0;entryY=0.5;entryDx=0;entryDy=0;strokeWidth=2;" parent="1" source="ebxvgqM7-ZJhUs1iQiPG-6" target="hYQo3jA98YawYeU_-Lyr-175" edge="1">
          <mxGeometry width="50" height="50" relative="1" as="geometry">
            <mxPoint x="-494" y="1174" as="sourcePoint" />
            <mxPoint x="-275" y="1151" as="targetPoint" />
            <Array as="points">
              <mxPoint x="-275" y="1118" />
            </Array>
          </mxGeometry>
        </mxCell>
        <mxCell id="ebxvgqM7-ZJhUs1iQiPG-10" value="Cancel Membership" style="rounded=0;whiteSpace=wrap;html=1;strokeWidth=2;" parent="1" vertex="1">
          <mxGeometry x="-132" y="2013" width="88" height="33" as="geometry" />
        </mxCell>
        <mxCell id="ebxvgqM7-ZJhUs1iQiPG-11" value="" style="endArrow=none;html=1;rounded=0;exitX=0.5;exitY=0;exitDx=0;exitDy=0;strokeWidth=2;" parent="1" source="ebxvgqM7-ZJhUs1iQiPG-10" edge="1">
          <mxGeometry width="50" height="50" relative="1" as="geometry">
            <mxPoint x="-307" y="1964" as="sourcePoint" />
            <mxPoint x="-88" y="1980" as="targetPoint" />
          </mxGeometry>
        </mxCell>
        <mxCell id="ebxvgqM7-ZJhUs1iQiPG-12" value="Retire Staff" style="rounded=0;whiteSpace=wrap;html=1;strokeWidth=2;" parent="1" vertex="1">
          <mxGeometry x="-379" y="1881" width="120" height="60" as="geometry" />
        </mxCell>
        <mxCell id="ebxvgqM7-ZJhUs1iQiPG-13" value="SM_Code" style="rounded=0;whiteSpace=wrap;html=1;strokeWidth=2;" parent="1" vertex="1">
          <mxGeometry x="-362.5" y="2013" width="88" height="33" as="geometry" />
        </mxCell>
        <mxCell id="ebxvgqM7-ZJhUs1iQiPG-14" value="" style="endArrow=none;html=1;rounded=0;exitX=0.5;exitY=0;exitDx=0;exitDy=0;entryX=0.5;entryY=1;entryDx=0;entryDy=0;strokeWidth=2;" parent="1" source="ebxvgqM7-ZJhUs1iQiPG-13" target="ebxvgqM7-ZJhUs1iQiPG-12" edge="1">
          <mxGeometry width="50" height="50" relative="1" as="geometry">
            <mxPoint x="-231" y="1973" as="sourcePoint" />
            <mxPoint x="-181" y="1923" as="targetPoint" />
          </mxGeometry>
        </mxCell>
        <mxCell id="ebxvgqM7-ZJhUs1iQiPG-15" value="" style="endArrow=none;html=1;rounded=0;exitX=0.383;exitY=-0.033;exitDx=0;exitDy=0;exitPerimeter=0;strokeWidth=2;" parent="1" source="ebxvgqM7-ZJhUs1iQiPG-12" edge="1">
          <mxGeometry width="50" height="50" relative="1" as="geometry">
            <mxPoint x="-333.5" y="1890" as="sourcePoint" />
            <mxPoint x="-333" y="1839" as="targetPoint" />
          </mxGeometry>
        </mxCell>
        <mxCell id="ebxvgqM7-ZJhUs1iQiPG-18" value="Remove Viewing" style="rounded=0;whiteSpace=wrap;html=1;strokeWidth=2;" parent="1" vertex="1">
          <mxGeometry x="-367.5" y="1451" width="120" height="60" as="geometry" />
        </mxCell>
        <mxCell id="ebxvgqM7-ZJhUs1iQiPG-19" value="Buy" style="rounded=0;whiteSpace=wrap;html=1;strokeWidth=2;" parent="1" vertex="1">
          <mxGeometry x="-418" y="1583" width="88" height="33" as="geometry" />
        </mxCell>
        <mxCell id="ebxvgqM7-ZJhUs1iQiPG-20" value="" style="endArrow=none;html=1;rounded=0;exitX=0.5;exitY=0;exitDx=0;exitDy=0;strokeWidth=2;" parent="1" source="ebxvgqM7-ZJhUs1iQiPG-19" edge="1">
          <mxGeometry width="50" height="50" relative="1" as="geometry">
            <mxPoint x="-219.5" y="1543" as="sourcePoint" />
            <mxPoint x="-374" y="1540" as="targetPoint" />
          </mxGeometry>
        </mxCell>
        <mxCell id="ebxvgqM7-ZJhUs1iQiPG-21" value="" style="endArrow=none;html=1;rounded=0;exitX=0.383;exitY=-0.033;exitDx=0;exitDy=0;exitPerimeter=0;strokeWidth=2;" parent="1" source="ebxvgqM7-ZJhUs1iQiPG-18" edge="1">
          <mxGeometry width="50" height="50" relative="1" as="geometry">
            <mxPoint x="-322" y="1460" as="sourcePoint" />
            <mxPoint x="-321.5" y="1409" as="targetPoint" />
          </mxGeometry>
        </mxCell>
        <mxCell id="ebxvgqM7-ZJhUs1iQiPG-22" value="1 Year" style="rounded=0;whiteSpace=wrap;html=1;strokeWidth=2;" parent="1" vertex="1">
          <mxGeometry x="-319" y="1583" width="88" height="33" as="geometry" />
        </mxCell>
        <mxCell id="ebxvgqM7-ZJhUs1iQiPG-23" value="" style="endArrow=none;html=1;rounded=0;exitX=0.5;exitY=0;exitDx=0;exitDy=0;strokeWidth=2;" parent="1" source="ebxvgqM7-ZJhUs1iQiPG-22" edge="1">
          <mxGeometry width="50" height="50" relative="1" as="geometry">
            <mxPoint x="-118" y="1543" as="sourcePoint" />
            <mxPoint x="-275" y="1540" as="targetPoint" />
          </mxGeometry>
        </mxCell>
        <mxCell id="mb9-AStiVbGeAas8BI4z-6" value="Mid Life" style="rounded=0;whiteSpace=wrap;html=1;strokeWidth=2;" parent="1" vertex="1">
          <mxGeometry x="-531.5" y="1091" width="120" height="60" as="geometry" />
        </mxCell>
        <mxCell id="mb9-AStiVbGeAas8BI4z-7" value="Sale" style="rounded=0;whiteSpace=wrap;html=1;strokeWidth=2;" parent="1" vertex="1">
          <mxGeometry x="-583.5" y="1224" width="88" height="33" as="geometry" />
        </mxCell>
        <mxCell id="mb9-AStiVbGeAas8BI4z-8" value="" style="endArrow=none;html=1;rounded=0;exitX=0.5;exitY=0;exitDx=0;exitDy=0;strokeWidth=2;" parent="1" source="mb9-AStiVbGeAas8BI4z-7" edge="1">
          <mxGeometry width="50" height="50" relative="1" as="geometry">
            <mxPoint x="-372" y="1174" as="sourcePoint" />
            <mxPoint x="-539" y="1188" as="targetPoint" />
          </mxGeometry>
        </mxCell>
        <mxCell id="mb9-AStiVbGeAas8BI4z-9" value="Rent Property" style="rounded=0;whiteSpace=wrap;html=1;strokeWidth=2;" parent="1" vertex="1">
          <mxGeometry x="-474" y="1223" width="88" height="33" as="geometry" />
        </mxCell>
        <mxCell id="mb9-AStiVbGeAas8BI4z-10" value="" style="endArrow=none;html=1;rounded=0;exitX=0.5;exitY=0;exitDx=0;exitDy=0;strokeWidth=2;" parent="1" source="mb9-AStiVbGeAas8BI4z-9" edge="1">
          <mxGeometry width="50" height="50" relative="1" as="geometry">
            <mxPoint x="-649" y="1174" as="sourcePoint" />
            <mxPoint x="-429" y="1188" as="targetPoint" />
          </mxGeometry>
        </mxCell>
        <mxCell id="mb9-AStiVbGeAas8BI4z-13" value="" style="endArrow=none;html=1;rounded=0;strokeWidth=2;" parent="1" edge="1">
          <mxGeometry width="50" height="50" relative="1" as="geometry">
            <mxPoint x="-197" y="1223" as="sourcePoint" />
            <mxPoint x="-43" y="1223" as="targetPoint" />
          </mxGeometry>
        </mxCell>
        <mxCell id="mb9-AStiVbGeAas8BI4z-14" value="" style="endArrow=none;html=1;rounded=0;strokeWidth=2;" parent="1" edge="1">
          <mxGeometry width="50" height="50" relative="1" as="geometry">
            <mxPoint x="-197" y="1276" as="sourcePoint" />
            <mxPoint x="-197.5" y="1223" as="targetPoint" />
          </mxGeometry>
        </mxCell>
        <mxCell id="mb9-AStiVbGeAas8BI4z-15" value="" style="endArrow=none;html=1;rounded=0;strokeWidth=2;" parent="1" edge="1">
          <mxGeometry width="50" height="50" relative="1" as="geometry">
            <mxPoint x="-43" y="1276" as="sourcePoint" />
            <mxPoint x="-43.5" y="1223" as="targetPoint" />
          </mxGeometry>
        </mxCell>
        <mxCell id="mb9-AStiVbGeAas8BI4z-16" value="Sale" style="rounded=0;whiteSpace=wrap;html=1;strokeWidth=2;" parent="1" vertex="1">
          <mxGeometry x="-242" y="1276" width="88" height="33" as="geometry" />
        </mxCell>
        <mxCell id="mb9-AStiVbGeAas8BI4z-17" value="1 Year" style="rounded=0;whiteSpace=wrap;html=1;strokeWidth=2;" parent="1" vertex="1">
          <mxGeometry x="-93" y="1276" width="88" height="33" as="geometry" />
        </mxCell>
        <mxCell id="mb9-AStiVbGeAas8BI4z-18" value="" style="endArrow=none;html=1;rounded=0;entryX=0.433;entryY=-0.05;entryDx=0;entryDy=0;entryPerimeter=0;strokeWidth=2;" parent="1" target="hYQo3jA98YawYeU_-Lyr-174" edge="1">
          <mxGeometry width="50" height="50" relative="1" as="geometry">
            <mxPoint x="-663" y="1045" as="sourcePoint" />
            <mxPoint x="-566" y="1210" as="targetPoint" />
          </mxGeometry>
        </mxCell>
        <mxCell id="mb9-AStiVbGeAas8BI4z-19" value="" style="endArrow=none;html=1;rounded=0;entryX=0.433;entryY=-0.05;entryDx=0;entryDy=0;entryPerimeter=0;strokeWidth=2;" parent="1" edge="1">
          <mxGeometry width="50" height="50" relative="1" as="geometry">
            <mxPoint x="-479" y="1047" as="sourcePoint" />
            <mxPoint x="-479" y="1090" as="targetPoint" />
          </mxGeometry>
        </mxCell>
        <mxCell id="mb9-AStiVbGeAas8BI4z-20" value="Change Details" style="rounded=0;whiteSpace=wrap;html=1;strokeWidth=2;" parent="1" vertex="1">
          <mxGeometry x="-871.5" y="1453" width="120" height="60" as="geometry" />
        </mxCell>
        <mxCell id="mb9-AStiVbGeAas8BI4z-21" value="" style="endArrow=none;html=1;rounded=0;exitX=0.367;exitY=0.017;exitDx=0;exitDy=0;exitPerimeter=0;strokeWidth=2;" parent="1" edge="1">
          <mxGeometry width="50" height="50" relative="1" as="geometry">
            <mxPoint x="-815.46" y="1454.02" as="sourcePoint" />
            <mxPoint x="-816.5" y="1409" as="targetPoint" />
          </mxGeometry>
        </mxCell>
        <mxCell id="mb9-AStiVbGeAas8BI4z-22" value="Mid Life" style="rounded=0;whiteSpace=wrap;html=1;strokeWidth=2;" parent="1" vertex="1">
          <mxGeometry x="-712.75" y="1452" width="120" height="60" as="geometry" />
        </mxCell>
        <mxCell id="mb9-AStiVbGeAas8BI4z-23" value="View Property" style="rounded=0;whiteSpace=wrap;html=1;strokeWidth=2;" parent="1" vertex="1">
          <mxGeometry x="-764.75" y="1585" width="88" height="33" as="geometry" />
        </mxCell>
        <mxCell id="mb9-AStiVbGeAas8BI4z-24" value="" style="endArrow=none;html=1;rounded=0;exitX=0.5;exitY=0;exitDx=0;exitDy=0;strokeWidth=2;" parent="1" source="mb9-AStiVbGeAas8BI4z-23" edge="1">
          <mxGeometry width="50" height="50" relative="1" as="geometry">
            <mxPoint x="-553.25" y="1535" as="sourcePoint" />
            <mxPoint x="-721" y="1540" as="targetPoint" />
          </mxGeometry>
        </mxCell>
        <mxCell id="mb9-AStiVbGeAas8BI4z-25" value="Rent" style="rounded=0;whiteSpace=wrap;html=1;strokeWidth=2;" parent="1" vertex="1">
          <mxGeometry x="-655.25" y="1584" width="88" height="33" as="geometry" />
        </mxCell>
        <mxCell id="mb9-AStiVbGeAas8BI4z-26" value="" style="endArrow=none;html=1;rounded=0;exitX=0.5;exitY=0;exitDx=0;exitDy=0;strokeWidth=2;" parent="1" source="mb9-AStiVbGeAas8BI4z-25" edge="1">
          <mxGeometry width="50" height="50" relative="1" as="geometry">
            <mxPoint x="-830.25" y="1535" as="sourcePoint" />
            <mxPoint x="-611" y="1540" as="targetPoint" />
          </mxGeometry>
        </mxCell>
        <mxCell id="mb9-AStiVbGeAas8BI4z-27" value="" style="endArrow=none;html=1;rounded=0;entryX=0.433;entryY=-0.05;entryDx=0;entryDy=0;entryPerimeter=0;strokeWidth=2;" parent="1" edge="1">
          <mxGeometry width="50" height="50" relative="1" as="geometry">
            <mxPoint x="-660.25" y="1408" as="sourcePoint" />
            <mxPoint x="-660.25" y="1451" as="targetPoint" />
          </mxGeometry>
        </mxCell>
        <mxCell id="mb9-AStiVbGeAas8BI4z-28" value="" style="endArrow=none;html=1;rounded=0;strokeWidth=2;" parent="1" edge="1">
          <mxGeometry width="50" height="50" relative="1" as="geometry">
            <mxPoint x="-374" y="1540" as="sourcePoint" />
            <mxPoint x="-275" y="1540" as="targetPoint" />
          </mxGeometry>
        </mxCell>
        <mxCell id="mb9-AStiVbGeAas8BI4z-29" value="" style="endArrow=none;html=1;rounded=0;entryX=0.454;entryY=0.983;entryDx=0;entryDy=0;entryPerimeter=0;strokeWidth=2;" parent="1" target="ebxvgqM7-ZJhUs1iQiPG-18" edge="1">
          <mxGeometry width="50" height="50" relative="1" as="geometry">
            <mxPoint x="-313" y="1540" as="sourcePoint" />
            <mxPoint x="-401" y="1507" as="targetPoint" />
          </mxGeometry>
        </mxCell>
        <mxCell id="mb9-AStiVbGeAas8BI4z-30" value="" style="endArrow=none;html=1;rounded=0;strokeWidth=2;" parent="1" edge="1">
          <mxGeometry width="50" height="50" relative="1" as="geometry">
            <mxPoint x="-721" y="1540" as="sourcePoint" />
            <mxPoint x="-611" y="1540" as="targetPoint" />
          </mxGeometry>
        </mxCell>
        <mxCell id="mb9-AStiVbGeAas8BI4z-32" value="" style="endArrow=none;html=1;rounded=0;entryX=0.44;entryY=0.917;entryDx=0;entryDy=0;entryPerimeter=0;strokeWidth=2;" parent="1" target="mb9-AStiVbGeAas8BI4z-22" edge="1">
          <mxGeometry width="50" height="50" relative="1" as="geometry">
            <mxPoint x="-661" y="1540" as="sourcePoint" />
            <mxPoint x="-611.5" y="1485" as="targetPoint" />
          </mxGeometry>
        </mxCell>
        <mxCell id="mb9-AStiVbGeAas8BI4z-34" value="" style="endArrow=none;html=1;rounded=0;strokeWidth=2;" parent="1" edge="1">
          <mxGeometry width="50" height="50" relative="1" as="geometry">
            <mxPoint x="-88" y="1980" as="sourcePoint" />
            <mxPoint x="-209" y="1980" as="targetPoint" />
          </mxGeometry>
        </mxCell>
        <mxCell id="mb9-AStiVbGeAas8BI4z-35" value="" style="endArrow=none;html=1;rounded=0;entryX=0.604;entryY=0.983;entryDx=0;entryDy=0;entryPerimeter=0;strokeWidth=2;" parent="1" target="hYQo3jA98YawYeU_-Lyr-242" edge="1">
          <mxGeometry width="50" height="50" relative="1" as="geometry">
            <mxPoint x="-156" y="1980" as="sourcePoint" />
            <mxPoint x="-401" y="1980" as="targetPoint" />
          </mxGeometry>
        </mxCell>
        <mxCell id="mb9-AStiVbGeAas8BI4z-36" value="" style="endArrow=none;html=1;rounded=0;strokeWidth=2;" parent="1" edge="1">
          <mxGeometry width="50" height="50" relative="1" as="geometry">
            <mxPoint x="-1011" y="1980" as="sourcePoint" />
            <mxPoint x="-604" y="1980" as="targetPoint" />
          </mxGeometry>
        </mxCell>
        <mxCell id="mb9-AStiVbGeAas8BI4z-37" value="" style="endArrow=none;html=1;rounded=0;entryX=0.438;entryY=0.983;entryDx=0;entryDy=0;entryPerimeter=0;strokeWidth=2;" parent="1" target="hYQo3jA98YawYeU_-Lyr-240" edge="1">
          <mxGeometry width="50" height="50" relative="1" as="geometry">
            <mxPoint x="-819" y="1980" as="sourcePoint" />
            <mxPoint x="-588" y="1969" as="targetPoint" />
          </mxGeometry>
        </mxCell>
        <mxCell id="mb9-AStiVbGeAas8BI4z-38" value="" style="endArrow=none;html=1;rounded=0;strokeWidth=2;" parent="1" edge="1">
          <mxGeometry width="50" height="50" relative="1" as="geometry">
            <mxPoint x="-539" y="1188" as="sourcePoint" />
            <mxPoint x="-429" y="1188" as="targetPoint" />
          </mxGeometry>
        </mxCell>
        <mxCell id="mb9-AStiVbGeAas8BI4z-39" value="" style="endArrow=none;html=1;rounded=0;entryX=0.413;entryY=1;entryDx=0;entryDy=0;entryPerimeter=0;strokeWidth=2;" parent="1" target="mb9-AStiVbGeAas8BI4z-6" edge="1">
          <mxGeometry width="50" height="50" relative="1" as="geometry">
            <mxPoint x="-482" y="1188" as="sourcePoint" />
            <mxPoint x="-456" y="1397" as="targetPoint" />
          </mxGeometry>
        </mxCell>
      </root>
    </mxGraphModel>
  </diagram>
  <diagram id="gd7Cc95KLSi2A3rZxywC" name="Page-2">
    <mxGraphModel dx="1346" dy="759" grid="1" gridSize="11" guides="1" tooltips="1" connect="1" arrows="1" fold="1" page="1" pageScale="1" pageWidth="1100" pageHeight="850" math="0" shadow="0">
      <root>
        <mxCell id="0" />
        <mxCell id="1" parent="0" />
      </root>
    </mxGraphModel>
  </diagram>
</mxfile>
